# File created by Blade
# Date/Time:  Thu Jan 22 16:53:03 2015
#---------------------------------------------------------
:version 1.10
:name HOM
:units
  mass 1.0
  length 1.000000
  angle deg
:documentation
     Acclaim Skeleton File
:root
   axis xyz
   order TX TY TZ RX RY RZ
   position 0.000000 0.000000 0.000000
   orientation 0 0 0
:bonedata
   begin
      id 1
      name RightUpLeg_dum
      direction -1.000000 0.000000 0.000000
      length 3.766986
      axis 0.0 0.0 0.0 xyz
   end
   begin
      id 2
      name LeftUpLeg_dum
      direction 1.000000 0.000000 0.000000
      length 3.766986
      axis 0.0 0.0 0.0 xyz
   end
   begin
      id 3
      name Spine_dum
      direction 0.000000 1.000000 0.000000
      length 7.779697
      axis 0.0 0.0 0.0 xyz
   end
   begin
      id 4
      name RightUpLeg
      direction 0.000000 -1.000000 0.000000
      length 18.017682
      axis 0.0 0.0 0.0 xyz
      dof rx ry rz
   end
   begin
      id 5
      name RightLeg
      direction 0.000000 -1.000000 0.000000
      length 16.881075
      axis 0.0 0.0 0.0 xyz
      dof rx ry rz
   end
   begin
      id 6
      name RightFoot
      direction 0.000000 -0.258819 0.965926
      length 5.770812
      axis 15.0 0.0 0.0 xyz
      dof rx ry rz
   end
   begin
      id 7
      name RightToeBase
      direction 0.000000 0.000000 1.000000
      length 2.952750
      axis 0.0 0.0 0.0 xyz
      dof rx ry rz
   end
   begin
      id 8
      name LeftUpLeg
      direction 0.000000 -1.000000 0.000000
      length 18.017682
      axis 0.0 0.0 0.0 xyz
      dof rx ry rz
   end
   begin
      id 9
      name LeftLeg
      direction 0.000000 -1.000000 0.000000
      length 16.881075
      axis 0.0 0.0 0.0 xyz
      dof rx ry rz
   end
   begin
      id 10
      name LeftFoot
      direction 0.000000 -0.258819 0.965926
      length 5.770812
      axis 15.0 0.0 0.0 xyz
      dof rx ry rz
   end
   begin
      id 11
      name LeftToeBase
      direction 0.000000 0.000000 1.000000
      length 2.952750
      axis 0.0 0.0 0.0 xyz
      dof rx ry rz
   end
   begin
      id 12
      name Spine
      direction 0.000000 1.000000 0.000000
      length 0.000000
      axis 0.0 0.0 0.0 xyz
      dof rx ry rz
   end
   begin
      id 13
      name Spine_dum1
      direction 0.000000 1.000000 0.000000
      length 10.941760
      axis 0.0 0.0 0.0 xyz
   end
   begin
      id 14
      name Spine_dum2
      direction 0.000000 1.000000 0.000000
      length 10.941760
      axis 0.0 0.0 0.0 xyz
   end
   begin
      id 15
      name Spine_dum3
      direction 0.000000 1.000000 0.000000
      length 16.646042
      axis 0.0 0.0 0.0 xyz
   end
   begin
      id 16
      name RightShoulder
      direction -1.000000 0.000000 0.000000
      length 7.708937
      axis 0.0 0.0 90.0 xyz
      dof rx ry rz
   end
   begin
      id 17
      name RightArm
      direction -1.000000 0.000000 0.000000
      length 11.521345
      axis 0.0 0.0 90.0 xyz
      dof rx ry rz
   end
   begin
      id 18
      name RightForeArm
      direction -1.000000 0.000000 0.000000
      length 10.175898
      axis 0.0 0.0 90.0 xyz
      dof ry rz rx
   end
   begin
      id 19
      name RightHand
      direction -1.000000 0.000000 0.000000
      length 0.000000
      axis 0.0 0.0 90.0 xyz
      dof rx ry rz
   end
   begin
      id 20
      name RightHand_dum1
      direction -1.000000 0.000000 0.000000
      length 3.937000
      axis 0.0 0.0 90.0 xyz
   end
   begin
      id 21
      name RightHand_dum2
      direction 0.000000 0.000000 0.000000
      length 0.000000
      axis 0.0 0.0 90.0 xyz
   end
   begin
      id 22
      name RightHandThumb1
      direction 0.000000 0.000000 1.000000
      length 3.937000
      axis 0.0 0.0 90.0 xyz
      dof rx rz ry
   end
   begin
      id 23
      name LeftShoulder
      direction 1.000000 0.000000 0.000000
      length 7.708937
      axis 0.0 0.0 -90.0 xyz
      dof rx ry rz
   end
   begin
      id 24
      name LeftArm
      direction 1.000000 0.000000 0.000000
      length 11.521345
      axis 0.0 0.0 -90.0 xyz
      dof rx ry rz
   end
   begin
      id 25
      name LeftForeArm
      direction 1.000000 0.000000 0.000000
      length 10.175898
      axis 0.0 0.0 -90.0 xyz
      dof ry rz rx
   end
   begin
      id 26
      name LeftHand
      direction 1.000000 0.000000 0.000000
      length 0.000000
      axis 0.0 0.0 -90.0 xyz
      dof rx ry rz
   end
   begin
      id 27
      name LeftHand_dum1
      direction 1.000000 0.000000 0.000000
      length 3.937000
      axis 0.0 0.0 -90.0 xyz
   end
   begin
      id 28
      name LeftHand_dum2
      direction 0.000000 0.000000 0.000000
      length 0.000000
      axis 0.0 0.0 -90.0 xyz
   end
   begin
      id 29
      name LeftHandThumb1
      direction 0.000000 0.000000 1.000000
      length 3.937000
      axis 0.0 0.0 -90.0 xyz
      dof rx rz ry
   end
   begin
      id 30
      name Head
      direction 0.000000 1.000000 0.000000
      length 4.527550
      axis 0.0 0.0 0.0 xyz
      dof rx ry rz
   end
:hierarchy
   begin
      root RightUpLeg_dum LeftUpLeg_dum Spine_dum
      RightUpLeg_dum RightUpLeg
      LeftUpLeg_dum LeftUpLeg
      Spine_dum Spine
      RightUpLeg RightLeg
      RightLeg RightFoot
      RightFoot RightToeBase
      LeftUpLeg LeftLeg
      LeftLeg LeftFoot
      LeftFoot LeftToeBase
      Spine Spine_dum1 Spine_dum2 Spine_dum3
      Spine_dum1 RightShoulder
      Spine_dum2 LeftShoulder
      Spine_dum3 Head
      RightShoulder RightArm
      RightArm RightForeArm
      RightForeArm RightHand
      RightHand RightHand_dum1 RightHand_dum2
      RightHand_dum2 RightHandThumb1
      LeftShoulder LeftArm
      LeftArm LeftForeArm
      LeftForeArm LeftHand
      LeftHand LeftHand_dum1 LeftHand_dum2
      LeftHand_dum2 LeftHandThumb1
   end

# File created by Blade
# Date/Time:  Thu Jan 22 16:52:56 2015
# Frame Rate: 120.000 fps
#------------------------------------------------------
:FULLY-SPECIFIED
:DEGREES
1
root 3.847296 37.180637 2.895102 -0.812365 -2.238927 2.220193
RightUpLeg 8.929130 -9.909814 -6.100134
RightLeg -5.391705 -0.000000 0.000000
RightFoot -11.036110 -16.272817 17.974302
RightToeBase 14.859101 -0.000000 -0.000000
LeftUpLeg 7.838570 2.364211 0.805571
LeftLeg -3.444050 -0.000000 0.000000
LeftFoot -9.409214 16.482257 -18.265594
LeftToeBase 10.181546 -0.000000 -0.000000
Spine 5.266785 -2.958011 -3.643393
RightShoulder -4.460100 -4.995824 -28.975185
RightArm 6.116694 36.385686 28.518484
RightForeArm -6.143634 -0.000000 15.626769
RightHand 0.244419 -0.000000 10.181979
RightHandThumb1 -24.326973 -0.000000 -32.862282
LeftShoulder -22.366801 30.236963 18.838705
LeftArm 33.801431 -49.405122 -41.563035
LeftForeArm 42.647972 0.000000 4.416266
LeftHand -16.276258 0.000000 -7.597581
LeftHandThumb1 -26.253704 0.000000 33.147579
Head -14.978302 12.676227 1.790087
2
root 3.849405 37.180460 2.896011 -0.820600 -2.234373 2.229781
RightUpLeg 8.935074 -9.898087 -6.107886
RightLeg -5.378941 -0.000000 0.000000
RightFoot -11.075109 -16.290817 18.072863
RightToeBase 14.834615 -0.000000 -0.000000
LeftUpLeg 7.839106 2.328065 0.794443
LeftLeg -3.422744 -0.000000 0.000000
LeftFoot -9.376902 16.493408 -18.193038
LeftToeBase 10.110500 -0.000000 -0.000000
Spine 5.279030 -2.971065 -3.658295
RightShoulder -4.469692 -5.000549 -28.961918
RightArm 6.149174 36.384959 28.524167
RightForeArm -6.143548 -0.000000 15.645758
RightHand 0.228362 -0.000000 10.169164
RightHandThumb1 -24.326973 -0.000000 -32.862282
LeftShoulder -22.389791 30.246747 18.839744
LeftArm 33.846281 -49.406824 -41.602624
LeftForeArm 42.654226 -0.000000 4.432365
LeftHand -16.290182 -0.000000 -7.616509
LeftHandThumb1 -26.253704 0.000000 33.147579
Head -14.964208 12.598586 1.795305
3
root 3.851711 37.179926 2.897127 -0.828672 -2.238695 2.235579
RightUpLeg 8.943438 -9.886478 -6.123553
RightLeg -5.376772 -0.000000 0.000000
RightFoot -11.058407 -16.283273 18.029259
RightToeBase 14.756998 -0.000000 -0.000000
LeftUpLeg 7.848379 2.303353 0.784085
LeftLeg -3.418833 -0.000000 0.000000
LeftFoot -9.398375 16.503549 -18.218235
LeftToeBase 10.109524 -0.000000 -0.000000
Spine 5.285883 -2.971602 -3.663180
RightShoulder -4.468683 -5.002294 -28.961844
RightArm 6.155737 36.378038 28.523299
RightForeArm -6.146275 0.000000 15.666330
RightHand 0.215841 -0.000000 10.166911
RightHandThumb1 -24.326973 -0.000000 -32.862282
LeftShoulder -22.395771 30.254608 18.846770
LeftArm 33.862871 -49.398109 -41.624952
LeftForeArm 42.664006 -0.000000 4.453189
LeftHand -16.312510 -0.000000 -7.591545
LeftHandThumb1 -26.253704 0.000000 33.147579
Head -14.941532 12.587198 1.803913
4
root 3.853422 37.179474 2.897802 -0.832932 -2.233555 2.236607
RightUpLeg 8.946816 -9.896883 -6.128838
RightLeg -5.374287 -0.000000 0.000000
RightFoot -11.061758 -16.283722 17.983292
RightToeBase 14.883144 -0.000000 -0.000000
LeftUpLeg 7.853634 2.294636 0.780030
LeftLeg -3.419441 -0.000000 0.000000
LeftFoot -9.404122 16.508320 -18.211516
LeftToeBase 10.119587 -0.000000 -0.000000
Spine 5.288646 -2.973674 -3.659282
RightShoulder -4.467119 -4.994175 -28.971653
RightArm 6.131210 36.385284 28.522551
RightForeArm -6.181825 0.000000 15.716314
RightHand 0.182466 -0.000000 10.177291
RightHandThumb1 -24.326973 -0.000000 -32.862282
LeftShoulder -22.393995 30.271478 18.843545
LeftArm 33.894519 -49.410127 -41.655067
LeftForeArm 42.678058 0.000000 4.473103
LeftHand -16.331086 -0.000000 -7.585468
LeftHandThumb1 -26.253704 0.000000 33.147579
Head -14.921163 12.599384 1.802872
5
root 3.854668 37.179168 2.898864 -0.835502 -2.235349 2.232198
RightUpLeg 8.948429 -9.886480 -6.121292
RightLeg -5.368843 -0.000000 0.000000
RightFoot -11.085899 -16.298769 18.069523
RightToeBase 14.828661 -0.000000 -0.000000
LeftUpLeg 7.856336 2.307671 0.783758
LeftLeg -3.415725 -0.000000 0.000000
LeftFoot -9.410160 16.496502 -18.219202
LeftToeBase 10.115099 -0.000000 -0.000000
Spine 5.288621 -2.979080 -3.646056
RightShoulder -4.466528 -5.005950 -28.980799
RightArm 6.143587 36.410528 28.534753
RightForeArm -6.225438 0.000000 15.745984
RightHand 0.165773 -0.000000 10.155216
RightHandThumb1 -24.326973 -0.000000 -32.862282
LeftShoulder -22.403105 30.278386 18.825538
LeftArm 33.917997 -49.415109 -41.664489
LeftForeArm 42.681474 0.000000 4.479038
LeftHand -16.366750 -0.000000 -7.567876
LeftHandThumb1 -26.253704 0.000000 33.147579
Head -14.905389 12.605640 1.788181
6
root 3.857342 37.178827 2.900541 -0.841481 -2.240050 2.239800
RightUpLeg 8.951048 -9.896769 -6.141062
RightLeg -5.359198 -0.000000 0.000000
RightFoot -11.072119 -16.272611 17.991615
RightToeBase 14.837749 -0.000000 -0.000000
LeftUpLeg 7.877787 2.338130 0.771917
LeftLeg -3.440011 -0.000000 0.000000
LeftFoot -9.390312 16.490753 -18.193225
LeftToeBase 10.123533 -0.000000 -0.000000
Spine 5.290658 -2.977931 -3.647660
RightShoulder -4.459556 -5.008626 -28.984769
RightArm 6.132202 36.412711 28.524343
RightForeArm -6.224632 -0.000000 15.770506
RightHand 0.168476 -0.000000 10.143666
RightHandThumb1 -24.326973 -0.000000 -32.862282
LeftShoulder -22.410391 30.285767 18.820409
LeftArm 33.944347 -49.411322 -41.685308
LeftForeArm 42.708742 -0.000000 4.491001
LeftHand -16.424181 -0.000000 -7.545701
LeftHandThumb1 -26.253704 0.000000 33.147579
Head -14.888609 12.613399 1.789264
7
root 3.858240 37.178308 2.901102 -0.840702 -2.242366 2.234537
RightUpLeg 8.954273 -9.874279 -6.137405
RightLeg -5.366640 -0.000000 0.000000
RightFoot -11.072882 -16.279501 18.004367
RightToeBase 14.857850 -0.000000 -0.000000
LeftUpLeg 7.871764 2.321718 0.776449
LeftLeg -3.426748 -0.000000 0.000000
LeftFoot -9.412061 16.493666 -18.206787
LeftToeBase 10.100232 -0.000000 -0.000000
Spine 5.287778 -2.979479 -3.631930
RightShoulder -4.460426 -5.017187 -29.004169
RightArm 6.133602 36.400449 28.532560
RightForeArm -6.206428 -0.000000 15.790380
RightHand 0.172445 -0.000000 10.118904
RightHandThumb1 -24.326973 -0.000000 -32.862282
LeftShoulder -22.446713 30.333696 18.796499
LeftArm 34.058404 -49.435948 -41.786679
LeftForeArm 42.703634 0.000000 4.497387
LeftHand -16.333474 -0.000000 -7.361204
LeftHandThumb1 -26.253704 0.000000 33.147579
Head -14.873665 12.623072 1.772391
8
root 3.860359 37.178192 2.901499 -0.837832 -2.244268 2.236603
RightUpLeg 8.951265 -9.878033 -6.141224
RightLeg -5.365621 -0.000000 0.000000
RightFoot -11.068540 -16.280775 18.020071
RightToeBase 14.822572 -0.000000 -0.000000
LeftUpLeg 7.871626 2.315039 0.772522
LeftLeg -3.431166 -0.000000 0.000000
LeftFoot -9.405594 16.492448 -18.207994
LeftToeBase 10.112718 -0.000000 -0.000000
Spine 5.280839 -2.983151 -3.630106
RightShoulder -4.464909 -5.050948 -28.993459
RightArm 6.165258 36.385817 28.524491
RightForeArm -6.171451 0.000000 15.802875
RightHand 0.055455 -0.000000 10.162353
RightHandThumb1 -24.326973 -0.000000 -32.862282
LeftShoulder -22.438553 30.313684 18.795092
LeftArm 34.016172 -49.410199 -41.739519
LeftForeArm 42.716403 -0.000000 4.510585
LeftHand -16.439632 0.000000 -7.528451
LeftHandThumb1 -26.253704 0.000000 33.147579
Head -14.858002 12.644957 1.778440
9
root 3.861174 37.177529 2.901751 -0.831119 -2.249595 2.237895
RightUpLeg 8.963505 -9.830255 -6.137381
RightLeg -5.405442 -0.000000 0.000000
RightFoot -11.083437 -16.321509 18.097666
RightToeBase 14.829604 -0.000000 -0.000000
LeftUpLeg 7.871344 2.312855 0.768523
LeftLeg -3.441466 -0.000000 0.000000
LeftFoot -9.420309 16.500801 -18.227960
LeftToeBase 10.109892 -0.000000 -0.000000
Spine 5.266160 -2.966598 -3.629487
RightShoulder -4.470363 -5.069126 -28.994030
RightArm 6.164875 36.388681 28.518659
RightForeArm -6.158092 0.000000 15.802186
RightHand 0.071456 -0.000000 10.149712
RightHandThumb1 -24.326973 -0.000000 -32.862282
LeftShoulder -22.427947 30.313434 18.809377
LeftArm 34.028754 -49.398808 -41.754837
LeftForeArm 42.724026 -0.000000 4.523735
LeftHand -16.407401 -0.000000 -7.539108
LeftHandThumb1 -26.253704 0.000000 33.147579
Head -14.829059 12.634629 1.803925
10
root 3.863924 37.177684 2.902805 -0.828380 -2.247540 2.234608
RightUpLeg 8.950254 -9.881757 -6.141724
RightLeg -5.379442 -0.000000 0.000000
RightFoot -11.077062 -16.278728 18.084442
RightToeBase 14.843426 -0.000000 -0.000000
LeftUpLeg 7.876835 2.296152 0.764945
LeftLeg -3.456264 -0.000000 0.000000
LeftFoot -9.414071 16.521553 -18.220046
LeftToeBase 10.100634 -0.000000 -0.000000
Spine 5.252879 -2.966365 -3.606903
RightShoulder -4.469943 -5.072524 -29.014816
RightArm 6.160494 36.398215 28.517400
RightForeArm -6.173762 0.000000 15.808163
RightHand 0.089710 -0.000000 10.139592
RightHandThumb1 -24.326973 -0.000000 -32.862282
LeftShoulder -22.421033 30.311972 18.794837
LeftArm 34.039017 -49.394096 -41.760699
LeftForeArm 42.723512 -0.000000 4.530445
LeftHand -16.390905 -0.000000 -7.600788
LeftHandThumb1 -26.253704 0.000000 33.147579
Head -14.803176 12.722505 1.792905
